<svg xmlns="http://www.w3.org/2000/svg" width="1920" height="1080" viewBox="0 0 1920 1080">
  <defs>
    <style>
      .cls-1 {
        fill: none;
        stroke: #2e4f4f;
        stroke-width: 6px;
      }

      .cls-1, .cls-2 {
        fill-rule: evenodd;
      }

      .cls-2 {
        fill: #5d9c59;
        stroke: #5d9c59;
        stroke-width: 3px;
      }
    </style>
  </defs>
  <path id="Prostokąt_zaokrąglony_1" data-name="Prostokąt zaokrąglony 1" class="cls-1" d="M338.727,385H1567.5c8.92,0,16.15,6.927,16.15,15.473v252.2c0,8.545-7.23,15.472-16.15,15.472H338.727c-8.918,0-16.147-6.927-16.147-15.472v-252.2C322.58,391.927,329.809,385,338.727,385Z"/>
  <path id="TEKST" class="cls-2" d="M502.933,561.713Q514.626,542.567,514.627,517q0-37.423-21.344-59.727t-56.766-22.3q-35.082,0-57.448,23.281T356.7,518.74q0,35.9,21.571,58.15t55.858,22.248a65.316,65.316,0,0,0,7.891-.49,82.894,82.894,0,0,0,8.345-1.469q1.132,15.34,8.8,22.956t22.2,7.615q13.849,0,22.025-6.8T514.4,600.334l-5.109-1.849q-2.839,9.356-7.777,13.817a17.851,17.851,0,0,1-12.432,4.46q-8.856,0-13.737-6.147t-6.131-18.984Q491.239,580.861,502.933,561.713Zm-61.024,29.7a40.621,40.621,0,0,1-7.322.653,47.269,47.269,0,0,1-17.428-3.1,48.93,48.93,0,0,1-15.043-9.628A30.98,30.98,0,0,1,412.9,568.894,28.122,28.122,0,0,1,426.98,565.3q9.648,0,15.1,5.821t7.379,18.222A48.532,48.532,0,0,1,441.909,591.413Zm12.035-28.721q-8-5.655-20.266-5.657a43.186,43.186,0,0,0-19.811,4.406,45.1,45.1,0,0,0-15.5,13.436,63.756,63.756,0,0,1-13.227-24.152q-4.257-14.034-4.257-33.725,0-34.377,15.043-54.614t40.361-20.235q24.635,0,39.395,20.235T490.445,517q0,20.887-6.131,37.587T467.17,580.643Q461.947,568.351,453.944,562.692Zm74.874-84.966h5.791q2.61-19.036,10.615-26.219t27.078-7.18h19.754V571.613q0,12.186-3.349,15.177t-15.951,2.992h-2.839l0.114,7.18q13.736-.652,21.514-0.871t12.546-.217q4.086,0,11.012.217t20.663,0.871v-7.18h-2.838q-12.6,0-15.951-2.883t-3.35-15.286V444.327h19.755q18.959,0,26.964,7.126t10.729,26.273h5.79l-4.882-40.688H533.7Zm205.267-33.4q3.292-.108,8.969-0.381t8.061-.272q21.23,0,31.165,8.214t9.934,25.838q0,18.387-9.991,26.926t-31.676,8.54q-2.954,0-12.148-.326-2.838-.108-4.314-0.109v-68.43Zm-40.19,0q12.488,0.219,15.667,2.991t3.179,15.068V571.613q0,12.186-3.292,15.177T693.9,589.782v7.18q12.714-.652,19.641-0.871t11.24-.217q3.065,0,8.628.217t19.528,0.871V589.89q-12.944-.326-15.895-3.372t-2.952-14.9V520.808h14.192q23.613,0,32.413,7.18t8.8,28.177q0,1.742-.17,6.963t-0.17,8.92q0,13.818,6.073,20.345t18.9,6.527q10.67,0,17.03-5.6t8.287-16.808l-4.881-1.2q-1.7,6.637-4.712,9.683a10.6,10.6,0,0,1-7.891,3.046q-10.106,0-11.239-21-0.456-8.812-1.022-13.49-2.5-17.951-12.829-26.273t-33.038-10.716q25.315-1.413,38.033-11.26t12.716-28.232q0-21-15.5-30.516t-49.9-9.519q-6.811,0-15.838.326t-11.069.326h-7.493q-5.338,0-10.559-.163t-10.331-.489v7.289Zm238.531,86.054H886.559L910.288,467.5ZM859.879,577.6q-2.954,7.615-6.187,9.9t-10.048,2.285H842.4v7.18q5.79-.433,10.9-0.653t8.856-.218q4.769,0,10.218.218t11.239,0.653V589.89q-7.493-.433-10.274-2.5t-2.782-7.4a25.932,25.932,0,0,1,.965-6.418q0.963-3.7,3.917-11.641l9.083-24.261h50.749l12.943,36.989a14.022,14.022,0,0,1,.51,2.557,27.869,27.869,0,0,1,.171,3.209q0,4.9-3.52,7.126t-11.126,2.231h-1.135v7.18q8.286-.433,16.065-0.653t14.588-.218q4.655,0,11.581.218t15.44,0.653v-7.18h-0.908q-6.927,0-10.275-2.394t-6.3-9.791L919.6,434.971h-4.882ZM998.5,444.327h2.5q12.945,0,16.35,2.883t3.4,15.176V565.3q0,17.408-3.8,20.888t-17.312,3.7v7.072q10.788-.652,16.012-0.871t8.4-.217q4.65,0,11.07.217t16.97,0.871l0.11-7.18q-14.865,0-18.84-3.319t-3.98-21.377V453.03l111.61,143.932,5.56,1.088V467.5q0-16.209,3.69-19.528t15.84-3.644v-7.289q-9.195.544-14.25,0.816t-8.57.272q-5.46,0-12.32-.272t-15.95-.816v7.289h1.36q13.515,0,17.54,3.862t4.03,20.834v89.209L1043.8,437.038q-9.645.653-13.85,0.87t-6.81.218c-3.11,0-6.66-.09-10.67-0.272s-8.67-.453-13.968-0.816v7.289Zm267.828-6.093a78.6,78.6,0,0,0-23.28-3.263q-22.815,0-36.61,12.456t-13.8,33.019q0,10.88,3.98,18.494t12.71,13.817q8.625,5.984,30.43,13.6,4.2,1.414,6.24,2.176,19.08,6.963,26.23,14.034a24.034,24.034,0,0,1,7.15,17.842q0,14.253-9.48,22.846t-25.15,8.6q-20.55,0-32.52-13.055-11.985-13.056-13.12-36.663h-6.47q0,7.506.23,15.72t0.23,9.084q0,0.764-.23,9.356t-0.23,16.428h5.11l2.5-10.009A72.71,72.71,0,0,0,1221.2,594.9a67.129,67.129,0,0,0,23.33,4.025q24.525,0,40.02-12.62t15.49-32.311q0-15.993-9.82-26.056t-43.88-22.356q-20.325-7.18-27.36-14.307t-7.04-18.657q0-13.272,9.37-21.759t24.13-8.486q18.84,0,29.74,10.717t12.83,31.168h5.45q-0.225-6.744-.4-12.619t-0.17-10.988q0-3.482.17-8.649t0.4-11.913h-5l-1.93,8.268A71.076,71.076,0,0,0,1266.33,438.234Zm61.87,6.093q13.4,0,16.69,2.774t3.29,15.285V571.613q0,12.3-3.4,15.231t-16.58,2.938v7.18q12.945-.652,20.21-0.871t11.81-.217c2.12,0,4.97.054,8.57,0.163s10.5,0.418,20.72.925v-7.18q-13.29,0-16.63-2.775-3.36-2.773-3.35-15.394V462.386q0-12.183,3.29-15.122t16.69-2.937v-7.289q-11.58.544-19.07,0.816t-12.72.272q-4.2,0-10.73-.272t-18.79-.816v7.289Zm77.2,33.4h5.79q2.61-19.036,10.62-26.219t27.08-7.18h19.75V571.613q0,12.186-3.35,15.177t-15.95,2.992h-2.84l0.12,7.18q13.725-.652,21.51-0.871,7.77-.216,12.55-0.217,4.08,0,11.01.217t20.66,0.871v-7.18h-2.84q-12.6,0-15.95-2.883t-3.35-15.286V444.327h19.76q18.96,0,26.96,7.126t10.73,26.273h5.79l-4.88-40.688H1410.28Zm-710.323,152.7h-7.644l3.954-10.48Zm-12.091,7.87a3.65,3.65,0,0,1-1.031,1.65,2.943,2.943,0,0,1-1.675.38h-0.208v1.2q0.965-.072,1.817-0.109t1.475-.036q0.795,0,1.7.036t1.874,0.109v-1.179a3.37,3.37,0,0,1-1.713-.417,1.442,1.442,0,0,1-.463-1.233,4.287,4.287,0,0,1,.161-1.069q0.16-.616.652-1.94l1.514-4.044h8.458l2.157,6.165a2.333,2.333,0,0,1,.086.426,4.653,4.653,0,0,1,.028.535,1.3,1.3,0,0,1-.587,1.188,3.563,3.563,0,0,1-1.854.371h-0.189v1.2q1.38-.072,2.677-0.109t2.432-.036q0.776,0,1.93.036t2.573,0.109v-1.2h-0.151a2.962,2.962,0,0,1-1.713-.4,3.663,3.663,0,0,1-1.05-1.631l-8.95-23.772h-0.814Zm51.6-23.182a14.763,14.763,0,0,0-4.182-.59,12.3,12.3,0,0,0-9.461,3.872q-3.6,3.871-3.595,10.235,0,6.239,3.443,9.728t9.613,3.49a14.911,14.911,0,0,0,4.569-.68,11.839,11.839,0,0,0,3.813-2.021L740.055,640H740.3v-5.947a1.54,1.54,0,0,1,.454-1.27,3.435,3.435,0,0,1,1.741-.471v-1.179q-1.514.073-2.895,0.109t-2.592.036q-1.269,0-2.668-.036t-2.914-.109v1.179q0.548,0.018,1.513.054,3.822,0.128,3.823,2.031v2.847a8.047,8.047,0,0,1-.029.843,1.029,1.029,0,0,1-.123.39A3.684,3.684,0,0,1,734.577,640a9.761,9.761,0,0,1-3.548.6,8.409,8.409,0,0,1-7.1-3.173q-2.44-3.173-2.44-9.229,0-6.183,2.374-9.329a8.235,8.235,0,0,1,7.011-3.146,7.678,7.678,0,0,1,5.544,2,8.5,8.5,0,0,1,2.4,5.6h0.965q-0.019-.58-0.038-1.56-0.037-1.558-.037-1.994,0-1.107.132-3.409,0.037-.87.057-1.306h-0.965L738.5,616.9A15.716,15.716,0,0,0,734.587,615.114Zm18.032,0.97q0.549-.018,1.5-0.064t1.344-.045q3.537,0,5.194,1.369a5.274,5.274,0,0,1,1.655,4.306,5.592,5.592,0,0,1-1.665,4.488q-1.665,1.423-5.279,1.423-0.492,0-2.025-.054-0.472-.018-0.719-0.018V616.084Zm-6.7,0a4.717,4.717,0,0,1,2.611.5q0.529,0.463.53,2.512v18.2q0,2.031-.549,2.53a4.322,4.322,0,0,1-2.592.5v1.2q2.119-.108,3.273-0.145t1.874-.036q0.51,0,1.438.036t3.254,0.145v-1.179q-2.157-.054-2.649-0.562a3.989,3.989,0,0,1-.492-2.484v-8.467h2.366q3.934,0,5.4,1.2t1.466,4.7q0,0.289-.028,1.16t-0.028,1.487a4.846,4.846,0,0,0,1.012,3.39,4.949,4.949,0,0,0,5.989.155,4.652,4.652,0,0,0,1.381-2.8l-0.814-.2a3.522,3.522,0,0,1-.785,1.613,1.764,1.764,0,0,1-1.315.508q-1.684,0-1.873-3.5-0.077-1.469-.171-2.249a6.512,6.512,0,0,0-2.138-4.379,10.614,10.614,0,0,0-5.506-1.785,11.332,11.332,0,0,0,6.339-1.877,5.6,5.6,0,0,0,2.119-4.7,5.519,5.519,0,0,0-2.583-5.086q-2.583-1.587-8.316-1.587-1.135,0-2.64.054t-1.845.055H749.4q-0.891,0-1.76-.027t-1.722-.082v1.215Zm38.071-1.251q-5.129.036-11.448,0.036v1.215a4.715,4.715,0,0,1,2.611.5q0.531,0.463.53,2.512v18.2q0,2.031-.548,2.53a4.324,4.324,0,0,1-2.593.5v1.2h21.969q0.075-1.578.217-3.391t0.407-4.188h-0.965q-0.341,3.771-1.778,5.077t-5.469,1.305h-7.682V628.051h3.027q2.726,0,3.444.9t0.87,4.106h0.909q-0.057-1.758-.085-3.073t-0.029-2.239q0-.69.029-1.968t0.085-3.109h-0.927q-0.134,2.629-.842,3.409t-3.454.779h-3.027v-10.77h6.017q4.048,0,5.412,1.133t1.74,4.506H793.4q-0.132-1.777-.227-3.5T793,614.76Q789.12,614.8,783.992,614.833Zm26.624,0q-5.129.036-11.448,0.036v1.215a4.717,4.717,0,0,1,2.611.5q0.529,0.463.53,2.512v18.2q0,2.031-.549,2.53a4.322,4.322,0,0,1-2.592.5v1.2h21.968q0.075-1.578.218-3.391t0.407-4.188H820.8q-0.341,3.771-1.779,5.077t-5.469,1.305h-7.682V628.051h3.028q2.724,0,3.443.9t0.871,4.106h0.908q-0.057-1.758-.085-3.073T814,627.743q0-.69.028-1.968t0.085-3.109h-0.927q-0.132,2.629-.842,3.409t-3.453.779h-3.028v-10.77h6.017q4.05,0,5.412,1.133t1.741,4.506h0.984q-0.133-1.777-.227-3.5t-0.171-3.463Q815.743,614.8,810.616,614.833Zm14.21,1.251h0.416a4.855,4.855,0,0,1,2.725.48q0.568,0.481.568,2.53v17.153q0,2.9-.634,3.481a4.818,4.818,0,0,1-2.886.616v1.179q1.8-.108,2.668-0.145t1.4-.036q0.777,0,1.845.036t2.829,0.145l0.019-1.2q-2.479,0-3.141-.553t-0.662-3.563V617.534l18.6,23.989L849.5,641.7V619.946q0-2.7.615-3.255a4.442,4.442,0,0,1,2.64-.607v-1.215q-1.533.091-2.375,0.136c-0.561.03-1.038,0.045-1.428,0.045q-0.909,0-2.053-.045t-2.659-.136v1.215h0.227a4.517,4.517,0,0,1,2.924.643q0.671,0.645.671,3.473v14.868l-15.686-20.2q-1.608.109-2.309,0.145c-0.466.024-.845,0.036-1.135,0.036q-0.776,0-1.779-.045t-2.327-.136v1.215ZM865.4,621.65h0.965q0.435-3.173,1.769-4.369t4.513-1.2h3.293V637.3q0,2.031-.559,2.53a4.511,4.511,0,0,1-2.658.5h-0.473l0.019,1.2q2.289-.108,3.585-0.145t2.091-.036q0.681,0,1.836.036t3.444,0.145v-1.2h-0.473a4.653,4.653,0,0,1-2.659-.48q-0.558-.48-0.558-2.548V616.084h3.292q3.16,0,4.494,1.188t1.788,4.378h0.965l-0.813-6.781H866.209Zm34.211-5.566q0.549-.018,1.5-0.064t1.343-.045q3.539,0,5.2,1.369a5.274,5.274,0,0,1,1.655,4.306,5.592,5.592,0,0,1-1.665,4.488q-1.665,1.423-5.279,1.423-0.492,0-2.025-.054-0.473-.018-0.719-0.018V616.084Zm-6.7,0a4.717,4.717,0,0,1,2.611.5q0.529,0.463.53,2.512v18.2q0,2.031-.549,2.53a4.322,4.322,0,0,1-2.592.5v1.2q2.118-.108,3.273-0.145t1.874-.036q0.51,0,1.438.036t3.254,0.145v-1.179q-2.157-.054-2.649-0.562a3.989,3.989,0,0,1-.492-2.484v-8.467h2.365q3.936,0,5.4,1.2t1.466,4.7q0,0.289-.028,1.16t-0.029,1.487a4.846,4.846,0,0,0,1.013,3.39,4.948,4.948,0,0,0,5.988.155,4.648,4.648,0,0,0,1.382-2.8l-0.814-.2a3.522,3.522,0,0,1-.785,1.613,1.764,1.764,0,0,1-1.315.508q-1.684,0-1.873-3.5-0.077-1.469-.171-2.249a6.512,6.512,0,0,0-2.138-4.379,10.614,10.614,0,0,0-5.506-1.785,11.332,11.332,0,0,0,6.339-1.877,5.6,5.6,0,0,0,2.119-4.7,5.519,5.519,0,0,0-2.583-5.086q-2.583-1.587-8.316-1.587-1.136,0-2.64.054t-1.845.055h-1.249q-0.889,0-1.759-.027t-1.722-.082v1.215Zm39.755,14.342h-7.644l3.954-10.48Zm-12.091,7.87a3.65,3.65,0,0,1-1.031,1.65,2.943,2.943,0,0,1-1.675.38h-0.208v1.2q0.965-.072,1.816-0.109t1.476-.036q0.795,0,1.7.036t1.874,0.109v-1.179a3.37,3.37,0,0,1-1.713-.417,1.443,1.443,0,0,1-.464-1.233,4.334,4.334,0,0,1,.161-1.069q0.161-.616.653-1.94l1.514-4.044h8.458l2.157,6.165a2.338,2.338,0,0,1,.085.426,4.642,4.642,0,0,1,.029.535,1.3,1.3,0,0,1-.587,1.188,3.563,3.563,0,0,1-1.854.371h-0.189v1.2q1.38-.072,2.677-0.109t2.432-.036q0.776,0,1.93.036t2.573,0.109v-1.2h-0.151a2.962,2.962,0,0,1-1.713-.4,3.663,3.663,0,0,1-1.05-1.631l-8.95-23.772h-0.814Zm23.1-22.212h0.416a4.857,4.857,0,0,1,2.725.48q0.567,0.481.567,2.53v17.153q0,2.9-.634,3.481a4.812,4.812,0,0,1-2.885.616v1.179q1.8-.108,2.668-0.145t1.4-.036q0.776,0,1.845.036t2.829,0.145l0.019-1.2q-2.48,0-3.141-.553t-0.663-3.563V617.534l18.6,23.989,0.927,0.181V619.946q0-2.7.615-3.255a4.442,4.442,0,0,1,2.64-.607v-1.215q-1.533.091-2.375,0.136t-1.429.045q-0.908,0-2.053-.045t-2.658-.136v1.215h0.227a4.514,4.514,0,0,1,2.923.643q0.672,0.645.672,3.473v14.868l-15.686-20.2q-1.609.109-2.309,0.145t-1.135.036q-0.777,0-1.779-.045t-2.327-.136v1.215Zm44.637-1.016a13.114,13.114,0,0,0-3.879-.544,8.761,8.761,0,0,0-6.1,2.077,7.057,7.057,0,0,0-2.3,5.5,5.975,5.975,0,0,0,2.782,5.385,23.049,23.049,0,0,0,5.071,2.266q0.7,0.237,1.041.363a12.624,12.624,0,0,1,4.371,2.339,4.007,4.007,0,0,1,1.192,2.974,4.889,4.889,0,0,1-1.58,3.807,6,6,0,0,1-4.191,1.433A6.994,6.994,0,0,1,979.3,638.5a9.409,9.409,0,0,1-2.185-6.111h-1.079q0,1.253.038,2.621t0.038,1.514q0,0.126-.038,1.559t-0.038,2.738h0.852l0.416-1.668a12.168,12.168,0,0,0,3.491,2.031,11.2,11.2,0,0,0,3.889.67,10.226,10.226,0,0,0,6.67-2.1,6.637,6.637,0,0,0,2.583-5.385,5.957,5.957,0,0,0-1.637-4.343q-1.637-1.677-7.313-3.726a12.667,12.667,0,0,1-4.561-2.384,4.234,4.234,0,0,1-1.173-3.11,4.676,4.676,0,0,1,1.561-3.626,5.759,5.759,0,0,1,4.021-1.415,6.768,6.768,0,0,1,4.958,1.786,8.094,8.094,0,0,1,2.138,5.2h0.908q-0.038-1.124-.066-2.1t-0.028-1.831q0-.58.028-1.442t0.066-1.985H992l-0.322,1.378A11.838,11.838,0,0,0,988.313,615.068Zm17.2,1.016c0.42-.024.82-0.042,1.21-0.055s0.77-.018,1.12-0.018c2.64,0,4.52.478,5.66,1.433s1.7,2.52,1.7,4.7q0,3.336-1.72,4.823t-5.68,1.487c-0.02,0-.29-0.015-0.79-0.046s-1-.051-1.48-0.063Zm-6.695-.073a4.65,4.65,0,0,1,2.6.562q0.54,0.49.54,2.521v18.2a3.772,3.772,0,0,1-.55,2.53,4.336,4.336,0,0,1-2.595.5v1.2q2.182-.108,3.3-0.145c0.75-.024,1.36-0.036,1.84-0.036s1.13,0.012,1.91.036,1.95,0.073,3.48.145v-1.2h-0.51a4.878,4.878,0,0,1-2.76-.489q-0.57-.49-0.57-2.539v-7.724c0.65,0.048,1.25.085,1.83,0.109s1.09,0.036,1.54.036q5.13,0,7.59-1.877t2.46-5.775a6.091,6.091,0,0,0-2.6-5.494q-2.61-1.7-8.49-1.7c-0.25,0-1.01.018-2.26,0.054s-2.39.055-3.4,0.055q-0.645,0-1.5-.027c-0.58-.019-1.2-0.046-1.865-0.082v1.142Zm42.935,3.046q2.475,3.3,2.48,9.139c0,3.844-.83,6.884-2.47,9.12a8.322,8.322,0,0,1-13.34.019c-1.64-2.224-2.45-5.271-2.45-9.139,0-3.8.81-6.818,2.45-9.066a7.65,7.65,0,0,1,6.5-3.373A8.071,8.071,0,0,1,1041.75,619.057Zm-16.08-.634a13.99,13.99,0,0,0-3.73,10.1,13.292,13.292,0,0,0,3.55,9.656,12.4,12.4,0,0,0,9.31,3.671,13.012,13.012,0,0,0,9.66-3.835,13.371,13.371,0,0,0,3.8-9.818q0-6.255-3.54-9.964a12.5,12.5,0,0,0-9.48-3.708A12.642,12.642,0,0,0,1025.67,618.423Zm33.32-2.339c0.36-.012.86-0.033,1.49-0.064s1.08-.045,1.35-0.045c2.35,0,4.09.456,5.19,1.369a5.281,5.281,0,0,1,1.65,4.306,5.59,5.59,0,0,1-1.66,4.488q-1.665,1.423-5.28,1.423c-0.33,0-1-.018-2.02-0.054q-0.48-.018-0.72-0.018V616.084Zm-6.7,0a4.7,4.7,0,0,1,2.61.5c0.35,0.309.53,1.146,0.53,2.512v18.2c0,1.354-.18,2.2-0.55,2.53a4.328,4.328,0,0,1-2.59.5v1.2q2.115-.108,3.27-0.145c0.77-.024,1.4-0.036,1.88-0.036,0.34,0,.82.012,1.43,0.036s1.71,0.073,3.26.145v-1.179c-1.44-.036-2.32-0.223-2.65-0.562a3.978,3.978,0,0,1-.49-2.484v-8.467h2.36q3.945,0,5.4,1.2,1.47,1.2,1.47,4.7,0,0.289-.03,1.16t-0.03,1.487a4.822,4.822,0,0,0,1.02,3.39,4.1,4.1,0,0,0,3.15,1.088,4.161,4.161,0,0,0,2.84-.933,4.712,4.712,0,0,0,1.38-2.8l-0.82-.2a3.572,3.572,0,0,1-.78,1.613,1.789,1.789,0,0,1-1.32.508c-1.12,0-1.74-1.166-1.87-3.5-0.05-.979-0.11-1.729-0.17-2.249a6.518,6.518,0,0,0-2.14-4.379,10.613,10.613,0,0,0-5.51-1.785,11.309,11.309,0,0,0,6.34-1.877,5.579,5.579,0,0,0,2.12-4.7,5.521,5.521,0,0,0-2.58-5.086q-2.58-1.587-8.32-1.587-1.125,0-2.64.054c-1,.037-1.61.055-1.84,0.055h-1.25c-0.59,0-1.18-.009-1.76-0.027s-1.15-.046-1.72-0.082v1.215Zm23.58,5.566h0.96q0.435-3.173,1.77-4.369c0.89-.8,2.39-1.2,4.51-1.2h3.29V637.3c0,1.354-.18,2.2-0.55,2.53a4.536,4.536,0,0,1-2.66.5h-0.47l0.01,1.2c1.53-.072,2.73-0.121,3.59-0.145s1.56-.036,2.09-0.036c0.45,0,1.07.012,1.84,0.036s1.91,0.073,3.44.145v-1.2h-0.47a4.654,4.654,0,0,1-2.66-.48c-0.37-.32-0.56-1.17-0.56-2.548V616.084h3.29q3.165,0,4.5,1.188t1.78,4.378h0.97l-0.81-6.781h-23.05Zm37.63,8.776h-7.64l3.95-10.48Zm-12.09,7.87a3.658,3.658,0,0,1-1.03,1.65,2.955,2.955,0,0,1-1.68.38h-0.2v1.2c0.64-.048,1.25-0.084,1.81-0.109s1.06-.036,1.48-0.036c0.53,0,1.1.012,1.7,0.036s1.23,0.061,1.87.109v-1.179a3.369,3.369,0,0,1-1.71-.417,1.439,1.439,0,0,1-.46-1.233,4.19,4.19,0,0,1,.16-1.069c0.11-.411.32-1.058,0.65-1.94l1.52-4.044h8.45l2.16,6.165a2.233,2.233,0,0,1,.09.426,4.418,4.418,0,0,1,.03.535,1.307,1.307,0,0,1-.59,1.188,3.573,3.573,0,0,1-1.86.371h-0.19v1.2c0.93-.048,1.82-0.084,2.68-0.109s1.68-.036,2.43-0.036c0.52,0,1.16.012,1.93,0.036s1.63,0.061,2.58.109v-1.2h-0.15a3,3,0,0,1-1.72-.4,3.7,3.7,0,0,1-1.05-1.631l-8.95-23.772h-0.81Zm21.02-16.646h0.97q0.435-3.173,1.77-4.369c0.89-.8,2.39-1.2,4.51-1.2h3.29V637.3c0,1.354-.18,2.2-0.56,2.53a4.475,4.475,0,0,1-2.65.5h-0.48l0.02,1.2c1.53-.072,2.72-0.121,3.59-0.145s1.56-.036,2.09-0.036q0.675,0,1.83.036t3.45,0.145v-1.2h-0.48a4.614,4.614,0,0,1-2.65-.48c-0.38-.32-0.56-1.17-0.56-2.548V616.084h3.29c2.11,0,3.6.4,4.49,1.188s1.49,2.251,1.79,4.378h0.97l-0.82-6.781h-23.04Zm27.33-5.566a5.134,5.134,0,0,1,2.78.462c0.36,0.308.55,1.158,0.55,2.548v18.2q0,2.049-.57,2.539a4.878,4.878,0,0,1-2.76.489v1.2c1.43-.072,2.56-0.121,3.36-0.145s1.47-.036,1.97-0.036c0.36,0,.83.009,1.43,0.027s1.75,0.07,3.45.154v-1.2a5.115,5.115,0,0,1-2.77-.462c-0.37-.308-0.56-1.163-0.56-2.566v-18.2c0-1.354.19-2.194,0.55-2.521a4.893,4.893,0,0,1,2.78-.489v-1.215c-1.28.061-2.34,0.106-3.17,0.136s-1.54.045-2.12,0.045c-0.47,0-1.07-.015-1.79-0.045s-1.77-.075-3.13-0.136v1.215Zm33.87,2.973q2.475,3.3,2.48,9.139c0,3.844-.83,6.884-2.47,9.12a8.322,8.322,0,0,1-13.34.019c-1.64-2.224-2.45-5.271-2.45-9.139,0-3.8.81-6.818,2.45-9.066a7.65,7.65,0,0,1,6.5-3.373A8.083,8.083,0,0,1,1183.63,619.057Zm-16.09-.634a14.026,14.026,0,0,0-3.72,10.1,13.292,13.292,0,0,0,3.55,9.656,12.383,12.383,0,0,0,9.31,3.671,13.012,13.012,0,0,0,9.66-3.835,13.371,13.371,0,0,0,3.8-9.818q0-6.255-3.54-9.964a12.5,12.5,0,0,0-9.48-3.708A12.679,12.679,0,0,0,1167.54,618.423Zm25.66-2.339h0.42a4.834,4.834,0,0,1,2.72.48q0.57,0.481.57,2.53v17.153q0,2.9-.63,3.481a4.851,4.851,0,0,1-2.89.616v1.179q1.8-.108,2.67-0.145c0.58-.024,1.05-0.036,1.4-0.036,0.52,0,1.13.012,1.84,0.036s1.66,0.073,2.83.145l0.02-1.2c-1.65,0-2.7-.184-3.14-0.553s-0.66-1.556-.66-3.563V617.534l18.6,23.989,0.93,0.181V619.946c0-1.8.2-2.886,0.61-3.255a4.442,4.442,0,0,1,2.64-.607v-1.215q-1.53.091-2.37,0.136c-0.57.03-1.04,0.045-1.43,0.045-0.61,0-1.29-.015-2.06-0.045s-1.65-.075-2.65-0.136v1.215h0.22a4.544,4.544,0,0,1,2.93.643c0.44,0.43.67,1.587,0.67,3.473v14.868l-15.69-20.2q-1.605.109-2.31,0.145c-0.46.024-.84,0.036-1.13,0.036-0.52,0-1.11-.015-1.78-0.045s-1.45-.075-2.33-0.136v1.215Z"/>
</svg>
